<svg width="75" height="53" viewBox="0 0 75 53" xmlns="http://www.w3.org/2000/svg" xmlns:xlink="http://www.w3.org/1999/xlink"><title>Page 1</title><defs><path id="path-1" d="M74.189 8.85H0V.255h74.189v8.597z"/></defs><g id="Page-1" fill="none" fill-rule="evenodd"><g id="home"><g id="Group-14"><g id="Page-1"><g id="Group-3" transform="translate(-.113 43.304)"><mask id="mask-2" fill="#fff"><use xlink:href="#path-1"/></mask><path d="M71.116 3.057h-.63V8.85h.63V6.248h.015a1.57 1.57 0 0 0 1.273.622c1.113 0 1.785-.891 1.785-1.95 0-1.025-.686-1.966-1.777-1.966-.514 0-.97.222-1.28.632h-.016v-.53zm1.178.481c.782 0 1.249.601 1.249 1.342 0 .752-.427 1.406-1.242 1.406-.79 0-1.216-.686-1.216-1.413 0-.696.474-1.335 1.209-1.335zm-5.077-.481h-.632v2.14c0 .986.372 1.673 1.47 1.673 1.096 0 1.467-.687 1.467-1.673v-2.14h-.63v2.07c0 .623-.072 1.159-.838 1.159s-.837-.536-.837-1.16v-2.07zm-3.246.481c.783 0 1.32.625 1.32 1.374 0 .757-.537 1.374-1.32 1.374-.78 0-1.317-.617-1.317-1.374 0-.749.537-1.374 1.317-1.374zm0 3.332c1.083 0 1.95-.86 1.95-1.95a1.95 1.95 0 1 0-3.899 0c0 1.09.869 1.95 1.95 1.95zm-3.504-3.813h-.632v3.711h.632V4.912c0-.483.03-1.374.726-1.374.166 0 .252.08.378.167l.302-.576c-.183-.103-.357-.175-.57-.175-.41 0-.6.213-.82.506h-.016v-.403zm-3.861.719v.615h1.768c0 1.106-1.09 1.864-2.124 1.864-.624 0-1.256-.323-1.69-.758a2.403 2.403 0 0 1-.694-1.68c0-1.345 1.074-2.49 2.432-2.49.877 0 1.548.419 2.045 1.122l.482-.45c-.633-.822-1.477-1.287-2.519-1.287a3.102 3.102 0 0 0-3.103 3.095c0 1.674 1.389 3.063 3.063 3.063.829 0 1.658-.363 2.203-.994.544-.632.632-1.294.616-2.1h-2.48zm-6.927 2.992h.632V.254h-.632v6.514zM46.101 4.51c.08-.538.585-.972 1.13-.972.553 0 1.003.434 1.09.972h-2.22zm2.884.537c.062-1.105-.57-2.093-1.762-2.093-1.16 0-1.8.909-1.8 2.006 0 1.066.71 1.91 1.816 1.91.758 0 1.358-.38 1.715-1.042l-.539-.307c-.244.441-.591.765-1.13.765-.717 0-1.207-.552-1.213-1.24h2.913zm-4.304-1.405h.663v-.585h-.663V1.723h-.631v1.334h-.387v.585h.387v3.126h.631V3.642zm-3.322-.104c.781 0 1.317.625 1.317 1.374 0 .757-.536 1.374-1.317 1.374-.781 0-1.317-.617-1.317-1.374 0-.749.536-1.374 1.317-1.374zm0 3.332c1.08 0 1.948-.86 1.948-1.95a1.948 1.948 0 1 0-3.897 0c0 1.09.87 1.95 1.949 1.95zm-6.401-3.639V.815h-.663v5.953h.663v-2.92h3.048v2.92h.662V.815h-.662V3.23h-3.048zm-3.88.41c-.164-.386-.561-.687-.986-.687-.6 0-1.106.426-1.106 1.05 0 1.17 1.675.885 1.675 1.713 0 .34-.262.569-.601.569-.419 0-.6-.244-.758-.592l-.56.238c.197.583.685.938 1.311.938.686 0 1.255-.503 1.255-1.207 0-.625-.427-.884-.862-1.066-.434-.182-.86-.309-.86-.649 0-.235.237-.41.458-.41.229 0 .419.181.506.38l.528-.276zm-5.621.87c.08-.539.583-.973 1.128-.973.553 0 1.004.434 1.091.972h-2.22zm2.882.536c.062-1.105-.568-2.093-1.76-2.093-1.161 0-1.803.909-1.803 2.006 0 1.066.712 1.91 1.818 1.91.758 0 1.357-.38 1.713-1.042l-.536-.307c-.245.441-.593.765-1.13.765-.718 0-1.208-.552-1.216-1.24h2.914zm-4.705-3.838a.45.45 0 1 0 0 0zm-.316 5.56h.632V3.056h-.632v3.711zm-2.006-3.712h-.634v3.711h.634V4.912c0-.483.031-1.374.727-1.374.165 0 .253.08.378.167l.301-.576c-.182-.103-.356-.175-.569-.175-.41 0-.6.213-.822.506h-.015v-.403zM17.12 4.51c.08-.538.584-.972 1.128-.972.552 0 1.005.434 1.09.972H17.12zm2.88.537c.064-1.105-.568-2.093-1.76-2.093-1.16 0-1.8.909-1.8 2.006 0 1.066.711 1.91 1.816 1.91.758 0 1.36-.38 1.713-1.042l-.537-.307c-.243.441-.59.765-1.129.765-.717 0-1.207-.552-1.215-1.24H20zm-4.254-3.41a1.709 1.709 0 0 0-1.54-.925c-.884 0-1.666.593-1.666 1.516 0 .854.6 1.207 1.295 1.524l.363.158c.553.253 1.098.49 1.098 1.184 0 .671-.586 1.16-1.224 1.16-.64 0-1.105-.498-1.192-1.104l-.648.18c.189.925.9 1.54 1.856 1.54 1.033 0 1.871-.797 1.871-1.84 0-.945-.655-1.332-1.43-1.673l-.393-.174c-.403-.182-.934-.418-.934-.931 0-.545.46-.925.987-.925.507 0 .79.238 1.028.648l.53-.338zM9.221 3.642h.664v-.585H9.22V1.723h-.63v1.334h-.388v.585h.387v3.126h.63V3.642zm-2.707-.585h-.632v3.711h.632V4.912c0-.483.03-1.374.726-1.374.166 0 .252.08.38.167l.3-.576c-.183-.103-.356-.175-.57-.175-.41 0-.6.213-.821.506h-.015v-.403zM3.727 4.462H1.714L2.73 2.078l.996 2.384zm.26.616l.703 1.69h.733L2.746.53 0 6.768h.725l.721-1.69h2.541z" id="Fill-1" fill="#222" mask="url(#mask-2)"/></g><path d="M49.022 37.456h7.71l-6.543-17.434H31.702L39.22 0h-7.71L17.455 37.427h7.71l3.826-10.187h16.193l3.837 10.216z" id="Fill-4" fill="#222" transform="translate(-.113)"/></g></g></g></g></svg>