<svg width="89" height="32" viewBox="0 0 89 32" xmlns="http://www.w3.org/2000/svg" xmlns:xlink="http://www.w3.org/1999/xlink"><title>Page 1</title><defs><path id="path-1" d="M0 30.997h88.882V.373H0v30.624z"/></defs><g id="Page-1" fill="none" fill-rule="evenodd"><g id="home"><g id="Group-14"><g id="Page-1"><path d="M38.204 25.327v2.52h-2.953v-2.52h-.59v5.67h.59V28.4h2.953v2.599h.591v-5.67h-.59z" id="Fill-1" fill="#1D1C1B" transform="translate(-.054 .1)"/><g id="Group-16" transform="translate(-.054 .22)"><path d="M42.651 29.303c0-.669-.456-1.18-1.063-1.18s-1.063.511-1.063 1.18c0 .686.456 1.181 1.063 1.181s1.063-.495 1.063-1.18zm-2.677 0c0-1.063.709-1.693 1.614-1.693.867 0 1.615.63 1.615 1.693 0 1.064-.748 1.693-1.615 1.693-.866 0-1.614-.63-1.614-1.693z" id="Fill-2" fill="#1D1C1B"/><path d="M44.343 30.249V28.24h-.472l.078-.512h.394v-1.142l.551-.157v1.3h.551v.511h-.55v1.97c0 .164.078.259.212.259.094 0 .212-.047.338-.142v.551a1.068 1.068 0 0 1-.464.118c-.402 0-.638-.196-.638-.747" id="Fill-4" fill="#1D1C1B"/><path d="M48.878 28.949c-.094-.394-.41-.827-.992-.827-.567 0-.914.465-.985.827h1.977zm-2.567.355c0-1.017.716-1.694 1.575-1.694.866 0 1.575.693 1.575 1.694v.141h-2.607c.031.575.465 1.04 1.032 1.04.425 0 .717-.15.968-.465l.465.283c-.425.504-.859.694-1.433.694-.859 0-1.575-.694-1.575-1.693z" id="Fill-6" fill="#1D1C1B"/><mask id="mask-2" fill="#fff"><use xlink:href="#path-1"/></mask><path d="M50.483 30.879h.55v-5.75h-.55v5.75z" id="Fill-8" fill="#1D1C1B" mask="url(#mask-2)"/><path d="M52.018 30.406l.354-.433c.158.236.512.511.906.511s.552-.157.552-.472c0-.551-1.576-.472-1.576-1.496 0-.63.473-.906 1.024-.906.354 0 .787.119 1.024.433l-.315.394c-.237-.236-.473-.315-.709-.315-.315 0-.473.158-.473.394 0 .55 1.576.393 1.576 1.496 0 .551-.316.985-1.103.985-.63 0-1.024-.276-1.26-.59" id="Fill-10" fill="#1D1C1B" mask="url(#mask-2)"/><path d="M7.789.373L.069 15.256 0 15.39h2.695l1.476-2.915h7.56l1.5 2.915h2.691L8.136.376 7.79.373zm2.765 9.79H5.349l2.612-5.28 2.593 5.28z" id="Fill-11" fill="#1D1C1B" mask="url(#mask-2)"/><path d="M80.748.373l-7.719 14.883-.07.133h2.695l1.476-2.915h7.56l1.5 2.915h2.692L81.096.376l-.348-.003zm2.765 9.79h-5.205l2.613-5.28 2.592 5.28z" id="Fill-12" fill="#1D1C1B" mask="url(#mask-2)"/><path d="M68.445 6.037a5.136 5.136 0 0 0-5.13-5.13h-7.467V15.39h2.47v-4.224h3.8l3.19 4.224h2.84l-3.357-4.447a5.138 5.138 0 0 0 3.654-4.906zM58.318 3.218h4.998c1.532 0 2.733 1.237 2.733 2.819 0 1.58-1.201 2.818-2.733 2.818h-4.998V3.218z" id="Fill-13" fill="#1D1C1B" mask="url(#mask-2)"/><path d="M17.362 3.218h5.56V15.39h2.469V3.218h5.558V.908H17.362v2.31z" id="Fill-14" fill="#1D1C1B" mask="url(#mask-2)"/><path d="M42.705 15.623c3.298 0 6.849-2.636 6.849-7.35V.907h-2.47v6.755c0 4.683-2.82 5.58-4.379 5.58-1.556 0-4.378-.897-4.378-5.58V.907h-2.47v7.366c0 4.714 3.55 7.35 6.848 7.35" id="Fill-15" fill="#1D1C1B" mask="url(#mask-2)"/></g></g></g></g></g></svg>