<svg width="52" height="48" viewBox="0 0 52 48" xmlns="http://www.w3.org/2000/svg" xmlns:xlink="http://www.w3.org/1999/xlink"><title>Page 1</title><defs><path id="path-1" d="M12.06 41.108V.142H.206v40.966H12.06z"/><path id="path-3" d="M0 47.21h51.826V.23H0v46.98z"/></defs><g id="Page-1" fill="none" fill-rule="evenodd"><g id="home"><g id="Group-14"><g id="Page-1" transform="translate(0 -.032)"><path d="M4.184 21.147c0-9.194 7.424-16.64 16.61-16.672 9.19-.001 16.637 7.418 16.671 16.611.002 9.183-7.421 16.634-16.609 16.668-9.188 0-16.634-7.42-16.672-16.607zm37.467-.07C41.631 9.572 32.291.27 20.786.287 9.286.313-.021 9.65 0 21.156.02 32.656 9.366 41.954 20.865 41.94c11.503-.027 20.808-9.364 20.786-20.864z" id="Fill-1" fill="#222"/><g id="Group-5" transform="translate(39.766 .088)"><mask id="mask-2" fill="#fff"><use xlink:href="#path-1"/></mask><path d="M5.067 41.108H7.2V2.276h4.86V.142H.206v2.134h4.86v38.832z" id="Fill-3" fill="#1D1C1B" mask="url(#mask-2)"/></g><mask id="mask-4" fill="#fff"><use xlink:href="#path-3"/></mask><path d="M20.913 47.21h11.649v-4.162h-11.65v4.161z" id="Fill-6" fill="#222" mask="url(#mask-4)"/></g></g></g></g></svg>