<svg width="75" height="52" viewBox="0 0 75 52" xmlns="http://www.w3.org/2000/svg" xmlns:xlink="http://www.w3.org/1999/xlink"><title>Page 1</title><defs><path id="path-1" d="M.357 15.161h14.186V.214H.357V15.16z"/><path id="path-3" d="M10.422 14.883V.306H.322v14.577h10.1z"/></defs><g id="Page-1" fill="none" fill-rule="evenodd"><g id="home"><g id="Group-14"><g id="Page-1"><g id="Group-3" fill="#1A171B"><path d="M28.998 14.415c0-7.96-6.452-14.411-14.411-14.411C6.629.004.177 6.456.177 14.414c0 7.96 6.452 14.411 14.41 14.411 7.959 0 14.41-6.451 14.41-14.41m-2.057 0c0 6.811-5.541 12.353-12.353 12.353-6.811 0-12.354-5.542-12.354-12.353 0-6.812 5.543-12.355 12.354-12.355 6.812 0 12.353 5.543 12.353 12.355m-14.866 1.239h2.138c.954 0 1.736-.238 2.348-.56a3.037 3.037 0 0 0 1.369-1.473c.3-.66.452-1.507.452-2.544 0-2.973-1.37-4.46-4.107-4.46h-2.319v8.918c0 .12.08.119.12.119m14.354-1.24c0-6.53-5.312-11.841-11.842-11.841S2.744 7.883 2.744 14.415c0 6.53 5.314 11.841 11.843 11.841 3.043 0 5.822-1.155 7.922-3.048-3.085 1.496-5.556-1.53-5.556-1.53L12.3 16.523c-.04-.06-.344-.133-.344.027v3.385h-.002c0 .339.445.345.684.425v.31H8.27v-.31c.24-.08.684-.058.684-.425v-13.1c0-.298-.444-.348-.684-.428v-.309l6.936.001c1.487 0 2.278.15 3.143.45 0 0 1.395.612 2.059 1.513.293.4.522.88.695 1.43.172.551.257 1.1.257 1.64 0 1.478-.553 2.665-1.662 3.562-.413.309-.974.584-1.683.827-.71.243-1.416.407-2.12.49-.229.025-.439.043-.688.057.37.38 2.815 2.886 4.618 4.694.76.763 1.531 1.15 2.216 1.316.236.042 1.45.195 2.261-.9a11.787 11.787 0 0 0 2.126-6.763" id="Fill-1" transform="translate(22.655 .137)"/></g><path d="M13.396 37.247c-.09.836.314 1.46.741 2.107l2.357 3.509 2.289-3.433c.718-1.026.921-1.5.876-2.183l3.389.02c-.63.682-1.1 1.384-1.257 1.592l-4.04 5.995v4.934c0 .133 0 .948.449 1.688h-3.413c.247-.531.45-.93.45-2.428v-4.023l-3.772-5.671c-.808-1.253-1.168-1.594-1.907-2.068l3.838-.039z" id="Fill-4" fill="#1A171B" transform="translate(.312 -.258)"/><path d="M27.225 46.768c0 1.627 0 2.162.14 3.31 5.163-.42 6.739-3.578 6.739-5.836 0-2.01-1.227-5.168-6.74-5.8-.139.88-.139 1.914-.139 2.621v5.705zm-2.595-5.723c0-1.99-.487-3.195-.695-3.867.603-.037 1.043-.076 1.807-.076 3.196 0 7.042.249 9.682 3.044 1.273 1.359 1.737 2.89 1.737 4.286 0 3.732-3.45 7.044-9.032 7.044h-4.194c.371-.9.695-1.723.695-4.363v-6.068z" id="Fill-6" fill="#1A171B" transform="translate(.312 -.258)"/><g id="Group-10" transform="translate(38.215 36.445)"><mask id="mask-2" fill="#fff"><use xlink:href="#path-1"/></mask><path d="M13.277 3.153c-1.036-.51-2.716-1.334-4.935-1.334-2.635 0-5.6 1.822-5.6 5.76 0 3.213 2.302 5.799 6.305 5.799 1.41 0 2.012-.235 2.737-.508v-1.628c0-2.271-.456-2.86-1.037-3.604h3.796c-.166.452-.436 1.117-.436 2.547v1.743c0 .98 0 1.274.291 2.273-1.058.392-2.593.96-5.454.96-6.991 0-8.587-4.35-8.587-7.131 0-1.86.664-3.762 1.95-5.212C3.964.938 5.935.214 9.233.214c1.887 0 3.089.273 4.043.489v2.45z" id="Fill-8" fill="#1A171B" mask="url(#mask-2)"/></g><path d="M62.459 37.018l-1.232 2.237c-1.815-.733-2.766-.926-4.474-.868v5.05h5.079l-1.383 2.026c-1.858-.484-2.463-.56-3.696-.637v5.281c2.075 0 3.22 0 6.656-1.04l-1.189 2.41h-8.49c.28-.85.603-1.871.603-3.721V40.68c0-.983-.15-2.409-.603-3.663h8.729z" id="Fill-11" fill="#1A171B" transform="translate(.312 -.258)"/><g id="Group-15" transform="translate(63.75 36.445)"><mask id="mask-4" fill="#fff"><use xlink:href="#path-3"/></mask><path d="M9.512 3.209c-.81-.496-1.843-1.127-3.49-1.127-1.596 0-2.85.802-2.85 1.93 0 1.356 1.548 2.063 3.858 3.096 2.654 1.183 3.392 2.31 3.392 3.687 0 2.37-2.383 4.088-6.243 4.088-1.448 0-2.31-.19-3.169-.381v-3.04c.836.747 1.915 1.74 3.611 1.74 1.598 0 2.753-.993 2.753-2.006 0-.994-1.007-1.624-1.549-1.89C1.895 7.393.322 6.628.322 4.45.322 2.178 2.756.306 5.777.306c1.67 0 2.85.401 3.735.687v2.216z" id="Fill-13" fill="#1A171B" mask="url(#mask-4)"/></g><path d="M3.005 44.597c1.628-.385 4.241-1 4.241-3.21 0-1.075-.801-2.805-4.241-3.093v6.303zM.459 40.08c0-1.691-.275-2.477-.459-2.977l3.35-.039c4.424-.058 6.511 2.172 6.511 4.112 0 2.345-2.476 3.498-3.257 3.842 1.537 2.269 3.646 4.402 5.687 6.458H9.93c-2.315-1.67-3.37-2.71-6.924-6.669v3.557c0 1.113.023 1.574.48 3.112H0c.367-1.422.459-2.48.459-3.728V40.08z" id="Fill-16" fill="#1A171B" transform="translate(.312 -.258)"/></g></g></g></g></svg>